<svg id="Layer_1" data-name="Layer 1" xmlns="http://www.w3.org/2000/svg" viewBox="0 0 1872.42 1759"><defs><style>.cls-1{fill:#828486;}.cls-2{fill:#595a5c;}.cls-3{fill:#a7aaac;}.cls-4{fill:#6e6f72;}.cls-5{fill:#424143;}</style></defs><path class="cls-1" d="M833.49,575.32v-132s-468.6-68.17-468.6,563.09c0,595.35,468.6,602.77,468.6,602.77V1454s-299.23,18.51-299.23-456C534.26,526.05,833.49,575.32,833.49,575.32Z" transform="translate(-57.95 -123)"/><path class="cls-2" d="M1235.52,491.92V341.83S763,344.51,763,1003.58c0,651.55,469.86,673,469.86,673l-1.26-145s-299.24.28-299.24-536.42C932.34,483.88,1235.52,491.92,1235.52,491.92Z" transform="translate(-57.95 -123)"/><path class="cls-3" d="M410,671.81v-137S58,536.32,58,999.25C58,1498.11,410,1494,410,1494V1352.35s-200.84-9.58-200.84-354.47C209.18,700.89,410,671.81,410,671.81Z" transform="translate(-57.95 -123)"/><path class="cls-3" d="M613.71,1527.53v162.78s461.91,19.25,461.91-690.78c0-657.21-461.91-664.74-461.91-664.74V499.88s276.38,27.2,276.38,501.68C890.09,1495,613.71,1527.53,613.71,1527.53Z" transform="translate(-57.95 -123)"/><path class="cls-4" d="M930,1644.55v179.28s553.25-34.21,553.25-816.37C1483.23,235.57,930,190.4,930,190.4V372.77s347.28,25,347.28,636.72C1277.26,1620.25,930,1644.55,930,1644.55Z" transform="translate(-57.95 -123)"/><path class="cls-5" d="M1350.76,1702.71V1882s579.61-28.74,579.61-874.54c0-837.59-579.61-884.46-579.61-884.46V305.37s373.63,31.47,373.63,704.12C1724.39,1667.13,1350.76,1702.71,1350.76,1702.71Z" transform="translate(-57.95 -123)"/></svg>